<?xml version="1.0" encoding="utf-8"?>
<!-- Generator: Adobe Illustrator 19.0.0, SVG Export Plug-In . SVG Version: 6.00 Build 0)  -->
<svg version="1.1" xmlns="http://www.w3.org/2000/svg" xmlns:xlink="http://www.w3.org/1999/xlink" x="0px" y="0px"
	 viewBox="-90 181 431 431" style="enable-background:new -90 181 431 431;" xml:space="preserve">
<style type="text/css">
	.st0{fill:#FFFFFF;}
	.st1{fill:#EA4C72;}
</style>
<g id="Layer_3">
	<circle class="st0" cx="129.5" cy="400.5" r="189.5"/>
</g>
<g id="Layer_2">
	<path class="st1" d="M128,191C14.8,191-77,282.8-77,396c0,113.2,91.8,205,205,205s205-91.8,205-205C333,282.8,241.2,191,128,191z
		 M128,498.5c-14.2,0-25.6-11.5-25.6-25.6c0-14.2,11.5-25.6,25.6-25.6s25.6,11.5,25.6,25.6C153.6,487,142.2,498.5,128,498.5z
		 M153.6,408.8h-51.3L89.6,306.3c0-7.1,5.7-12.8,12.8-12.8h51.3c7.1,0,12.8,5.7,12.8,12.8L153.6,408.8z"/>
</g>
</svg>
