<?xml version="1.0" encoding="utf-8"?>
<!-- Generator: Adobe Illustrator 19.0.0, SVG Export Plug-In . SVG Version: 6.00 Build 0)  -->
<svg version="1.1" id="Capa_1" xmlns="http://www.w3.org/2000/svg" xmlns:xlink="http://www.w3.org/1999/xlink" x="0px" y="0px"
	 viewBox="-100 192.4 409.6 409.6" style="enable-background:new -100 192.4 409.6 409.6;" xml:space="preserve">
<style type="text/css">
	.st0{fill:#8896AA;}
</style>
<g>
	<g>
		<path class="st0" d="M53.9,602c-17.7,0-35.5-5.8-50.3-17.7l-31-24.9c-16.8-13.5-27.4-32.6-29.7-54c-2.3-21.1,3.9-42.7,17.2-59.3
			L62.7,318.1c10.1-12.6,24.5-20.5,40.5-22.3c16.2-1.7,31.8,2.9,44.4,12.9l8.2,6.6c12.6,10.1,20.6,24.5,22.3,40.6
			c1.8,16-2.8,31.8-12.9,44.4l-74,92.4c-7.7,9.6-21.7,11.1-31.3,3.5c-9.6-7.7-11.2-21.7-3.5-31.3l74-92.4c2.6-3.3,3.9-7.4,3.4-11.6
			c-0.5-4.2-2.5-8-5.9-10.7l-8.2-6.6c-6.8-5.5-16.9-4.4-22.3,2.5L-5.1,474.1c-5.9,7.4-8.7,17-7.7,26.5c1.1,9.6,5.8,18.2,13.3,24.2
			l31,24.9c15.5,12.4,38.2,9.9,50.6-5.6l144.3-180.1c12.4-15.5,9.9-38.2-5.6-50.6l-85.2-68.3c-7.5-6-16.9-8.8-26.5-7.7
			c-9.6,1-18.1,5.8-24.2,13.3L-30.3,394.4c-7.7,9.6-21.7,11.2-31.3,3.5c-9.6-7.7-11.2-21.7-3.5-31.3L50.2,222.6
			c13.5-16.8,32.6-27.4,54-29.7c21.5-2.4,42.4,3.8,59.2,17.2l85.2,68.3c34.7,27.8,40.3,78.6,12.5,113.3L116.9,571.8
			C101,591.7,77.6,602,53.9,602z"/>
	</g>
</g>
</svg>
