<?xml version="1.0" encoding="utf-8"?>
<!-- Generator: Adobe Illustrator 19.0.0, SVG Export Plug-In . SVG Version: 6.00 Build 0)  -->
<svg version="1.1" id="Layer_1" xmlns="http://www.w3.org/2000/svg" xmlns:xlink="http://www.w3.org/1999/xlink" x="0px" y="0px"
	 viewBox="-292 384.1 25.9 25.9" style="enable-background:new -292 384.1 25.9 25.9;" xml:space="preserve">
<style type="text/css">
	.st0{fill:#8F9EB5;}
</style>
<g id="Layer_1_1_">
	<g>
		<path class="st0" d="M-279,401.1c2.2,0,4.1-1.8,4.1-4.1c0-2.2-1.8-4.1-4.1-4.1c-2.2,0-4.1,1.8-4.1,4.1
			C-283.1,399.3-281.3,401.1-279,401.1z"/>
		<path class="st0" d="M-279,409.9c7.1,0,12.8-5.7,12.8-12.8s-5.7-12.8-12.8-12.8s-12.8,5.7-12.8,12.8S-286.1,409.9-279,409.9z
			 M-279,389.6c4.1,0,7.5,3.4,7.5,7.5s-3.4,7.5-7.5,7.5s-7.5-3.4-7.5-7.5S-283.1,389.6-279,389.6z"/>
	</g>
</g>
</svg>
