<?xml version="1.0" encoding="utf-8"?>
<!-- Generator: Adobe Illustrator 19.0.0, SVG Export Plug-In . SVG Version: 6.00 Build 0)  -->
<svg version="1.1" id="Capa_1" xmlns="http://www.w3.org/2000/svg" xmlns:xlink="http://www.w3.org/1999/xlink" x="0px" y="0px"
	 viewBox="-283 285 512 512" style="enable-background:new -283 285 512 512;" xml:space="preserve">
<style type="text/css">
	.st0{fill:#78859B;}
</style>
<g>
	<g>
		<g>
			<path class="st0" d="M209,637c11,0,20-9,20-20V405c0-44.1-35.9-80-80-80h-26v-20c0-11-9-20-20-20s-20,9-20,20v20H-8v-20
				c0-11-9-20-20-20s-20,9-20,20v20h-90v-20c0-11-9-20-20-20s-20,9-20,20v20h-25c-44.1,0-80,35.9-80,80v312c0,44.1,35.9,80,80,80
				h352c44.1,0,80-35.9,80-80c0-11-9-20-20-20s-20,9-20,20c0,22.1-17.9,40-40,40h-352c-22.1,0-40-17.9-40-40V405
				c0-22.1,17.9-40,40-40h25v20c0,11,9,20,20,20s20-9,20-20v-20h90v20c0,11,9,20,20,20c11,0,20-9,20-20v-20h91v20c0,11,9,20,20,20
				s20-9,20-20v-20h26c22.1,0,40,17.9,40,40v212C189,628,198,637,209,637z"/>
			<path class="st0" d="M-28,676c11,0,20-9,20-20v-55h55c11,0,20-9,20-20s-9-20-20-20H-8v-55c0-11-9-20-20-20c-11,0-20,9-20,20v55
				h-55c-11,0-20,9-20,20s9,20,20,20h55v55C-48,667-39,676-28,676z"/>
		</g>
	</g>
</g>
</svg>
