<?xml version="1.0" encoding="utf-8"?>
<!-- Generator: Adobe Illustrator 19.0.0, SVG Export Plug-In . SVG Version: 6.00 Build 0)  -->
<svg version="1.1" id="Capa_1" xmlns="http://www.w3.org/2000/svg" xmlns:xlink="http://www.w3.org/1999/xlink" x="0px" y="0px"
	 viewBox="-49 141 512 512" style="enable-background:new -49 141 512 512;" xml:space="preserve">
<style type="text/css">
	.st0{fill:#B5C0D2;}
</style>
<g>
	<g>
		<g>
			<circle class="st0" cx="163" cy="351" r="20"/>
			<path class="st0" d="M449.9,554.4c-2.2-0.9-15.8-7.1-15.8-22.7v-30c0-42.2-29.6-78-69.1-87.5V401c0-11-9-20-20-20s-20,9-20,20
				v12.9c-40,9.1-70.1,45.2-70.1,87.8v30c0,15.6-13.6,21.8-15.8,22.7c-8.2,2.7-13.1,10.2-13.1,18.8c0,12.8,4.5,26.7,12.1,37.3
				c10.5,14.5,26.1,22.6,44,22.6H325c0,11,9,20,20,20s20-9,20-20h41.9c17.9,0,33.5-8,44-22.6c7.6-10.6,12.1-24.5,12.1-37.3
				C463,564.6,458,557.1,449.9,554.4z M406.9,593H282.1c-7.4,0-11.5-4.7-13.6-9.6c13.2-9.7,26.4-26.6,26.4-51.7v-30
				c0-27.2,22.1-49.6,49.2-50c0.1,0,0.3,0,0.4,0c0.1,0,0.3,0,0.4,0c27.2,0.4,49.2,22.8,49.2,50v30c0,25.1,13.2,42,26.4,51.7
				C418.4,588.3,414.3,593,406.9,593z"/>
			<circle class="st0" cx="163" cy="438" r="20"/>
			<circle class="st0" cx="163" cy="525" r="20"/>
			<circle class="st0" cx="76" cy="351" r="20"/>
			<circle class="st0" cx="76" cy="525" r="20"/>
			<circle class="st0" cx="250" cy="351" r="20"/>
			<circle class="st0" cx="76" cy="438" r="20"/>
			<path class="st0" d="M383,181h-26v-20c0-11-9-20-20-20s-20,9-20,20v20h-91v-20c0-11-9-20-20-20c-11,0-20,9-20,20v20H96v-20
				c0-11-9-20-20-20s-20,9-20,20v20H31c-44.1,0-80,35.9-80,80v312c0,44.1,35.9,80,80,80h131c11,0,20-9,20-20s-9-20-20-20H31
				c-22.1,0-40-17.9-40-40V261c0-22.1,17.9-40,40-40h25v20c0,11,9,20,20,20s20-9,20-20v-20h90v20c0,11,9,20,20,20c11,0,20-9,20-20
				v-20h91v20c0,11,9,20,20,20s20-9,20-20v-20h26c22.1,0,40,17.9,40,40v120c0,11,9,20,20,20s20-9,20-20V261
				C463,216.9,427.1,181,383,181z"/>
		</g>
	</g>
</g>
</svg>
