<?xml version="1.0" encoding="utf-8"?>
<!-- Generator: Adobe Illustrator 19.0.0, SVG Export Plug-In . SVG Version: 6.00 Build 0)  -->
<svg version="1.1" id="Capa_1" xmlns="http://www.w3.org/2000/svg" xmlns:xlink="http://www.w3.org/1999/xlink" x="0px" y="0px"
	 viewBox="-49 141 512 512" style="enable-background:new -49 141 512 512;" xml:space="preserve">
<style type="text/css">
	.st0{fill:#B5C0D2;}
</style>
<g>
	<g>
		<g>
			<circle class="st0" cx="337" cy="351" r="20"/>
			<path class="st0" d="M383,181h-26v-20c0-11-9-20-20-20s-20,9-20,20v20h-91v-20c0-11-9-20-20-20c-11,0-20,9-20,20v20H96v-20
				c0-11-9-20-20-20s-20,9-20,20v20H31c-44.1,0-80,35.9-80,80v312c0,44.1,35.9,80,80,80h153c11,0,20-9,20-20s-9-20-20-20H31
				c-22.1,0-40-17.9-40-40V261c0-22.1,17.9-40,40-40h25v20c0,11,9,20,20,20s20-9,20-20v-20h90v20c0,11,9,20,20,20c11,0,20-9,20-20
				v-20h91v20c0,11,9,20,20,20s20-9,20-20v-20h26c22.1,0,40,17.9,40,40v114c0,11,9,20,20,20s20-9,20-20V261
				C463,216.9,427.1,181,383,181z"/>
			<path class="st0" d="M342,411c-66.7,0-121,54.3-121,121s54.3,121,121,121s121-54.3,121-121S408.7,411,342,411z M342,613
				c-44.7,0-81-36.3-81-81s36.3-81,81-81s81,36.3,81,81S386.7,613,342,613z"/>
			<path class="st0" d="M371,512h-9v-21c0-11-9-20-20-20s-20,9-20,20v41c0,11,9,20,20,20h29c11,0,20-9,20-20S382,512,371,512z"/>
			<circle class="st0" cx="250" cy="351" r="20"/>
			<circle class="st0" cx="163" cy="438" r="20"/>
			<circle class="st0" cx="76" cy="351" r="20"/>
			<circle class="st0" cx="76" cy="438" r="20"/>
			<circle class="st0" cx="76" cy="525" r="20"/>
			<circle class="st0" cx="163" cy="525" r="20"/>
			<circle class="st0" cx="163" cy="351" r="20"/>
		</g>
	</g>
</g>
</svg>
