<svg viewBox="-23 0 512 512" xmlns="http://www.w3.org/2000/svg"><path d="m398.472656 445.128906c-22.289062 0-40.421875-18.136718-40.421875-40.425781v-106.625c0-13.769531-11.199219-24.96875-24.96875-24.96875h-31.234375c-4.269531 0-7.726562-3.460937-7.726562-7.726563 0-4.269531 3.457031-7.726562 7.726562-7.726562h31.234375c22.289063 0 40.421875 18.132812 40.421875 40.421875v106.625c0 13.769531 11.199219 24.972656 24.96875 24.972656 6.695313 0 12.980469-2.613281 17.703125-7.355469 4.714844-4.734374 7.296875-11.03125 7.269531-17.71875-.316406-71.597656.148438-192.324218.152344-193.386718.019532-4.269532 3.488282-7.726563 7.761719-7.691406 4.269531.015624 7.710937 3.492187 7.691406 7.757812-.003906 1.066406-.46875 121.722656-.152343 193.253906.046874 10.828125-4.132813 21.019532-11.773438 28.691406-7.640625 7.671876-17.816406 11.902344-28.652344 11.902344zm0 0" fill="#ffdf4a"/><path d="m416.15625 166.945312c-4.265625 0-7.722656-3.460937-7.722656-7.726562v-35.039062c0-4.269532 3.457031-7.726563 7.722656-7.726563 4.269531 0 7.726562 3.457031 7.726562 7.726563v35.039062c.003907 4.265625-3.457031 7.726562-7.726562 7.726562zm0 0" fill="#1a94af"/><path d="m446.492188 166.945312c-4.269532 0-7.726563-3.460937-7.726563-7.726562v-35.039062c0-4.269532 3.457031-7.726563 7.726563-7.726563 4.265624 0 7.726562 3.457031 7.726562 7.726563v35.039062c0 4.265625-3.460938 7.726562-7.726562 7.726562zm0 0" fill="#1a94af"/><path d="m314.03125 143.945312v321.625h-287.890625v-321.625c0-79.5 64.445313-143.945312 143.945313-143.945312s143.945312 64.445312 143.945312 143.945312zm0 0" fill="#53f4a0"/><path d="m314.03125 143.945312v321.625h-23.535156v-321.625c0-39.753906-16.105469-75.734374-42.160156-101.78125-23.453126-23.460937-54.957032-38.855468-90.015626-41.691406 3.878907-.3125 7.800782-.46874975 11.765626-.46874975 39.746093 0 75.738281 16.10546875 101.78125 42.16015575 26.054687 26.042969 42.164062 62.023438 42.164062 101.78125zm0 0" fill="#2db37a"/><path d="m26.140625 443.667969h287.890625v21.902343h-287.890625zm0 0" fill="#2db37a"/><path d="m329.816406 512h-319.460937c-5.71875 0-10.355469-4.636719-10.355469-10.355469v-35.191406c0-5.71875 4.636719-10.355469 10.355469-10.355469h319.460937c5.71875 0 10.355469 4.636719 10.355469 10.355469v35.191406c0 5.71875-4.636719 10.355469-10.355469 10.355469zm0 0" fill="#d1ede7"/><path d="m266.511719 113.667969v78.78125c0 4.914062-3.984375 8.910156-8.910157 8.910156h-175.03125c-4.925781 0-8.914062-3.996094-8.914062-8.910156v-78.78125c0-4.925781 3.988281-8.914063 8.914062-8.914063h175.03125c2.855469 0 5.394532 1.339844 7.027344 3.421875 1.183594 1.515625 1.882813 3.421875 1.882813 5.492188zm0 0" fill="#39aaff"/><path d="m251.546875 104.757812-96.617187 96.601563h-57.359376l96.605469-96.601563zm0 0" fill="#61daff"/><path d="m266.511719 113.667969v27.507812l-60.171875 60.183594h-34.882813l93.171875-93.183594c1.183594 1.515625 1.882813 3.421875 1.882813 5.492188zm0 0" fill="#61daff"/><path d="m143.878906 416.273438c1.878906 0 3.625-.972657 4.609375-2.570313l65.847657-106.464844c2.234374-3.613281-.363282-8.277343-4.613282-8.277343h-32.027344l30.113282-58.261719c1.867187-3.609375-.753906-7.914063-4.816406-7.914063h-23.847657c-2.03125 0-3.886719 1.132813-4.820312 2.933594l-48.695313 94.210938c-1.867187 3.609374.753906 7.914062 4.816406 7.914062h36.558594l-28.167968 71.007812c-1.414063 3.558594 1.210937 7.421876 5.042968 7.421876zm0 0" fill="#ffdf4a"/><g fill="#2db37a"><path d="m254.808594 385.578125h-26.148438c-4.269531 0-7.726562-3.457031-7.726562-7.722656 0-4.269531 3.457031-7.726563 7.726562-7.726563h26.148438c4.265625 0 7.726562 3.457032 7.726562 7.726563 0 4.265625-3.460937 7.722656-7.726562 7.722656zm0 0"/><path d="m254.808594 407.546875h-26.148438c-4.269531 0-7.726562-3.460937-7.726562-7.726563 0-4.269531 3.457031-7.726562 7.726562-7.726562h26.148438c4.265625 0 7.726562 3.457031 7.726562 7.726562 0 4.265626-3.460937 7.726563-7.726562 7.726563zm0 0"/><path d="m254.808594 429.511719h-26.148438c-4.269531 0-7.726562-3.460938-7.726562-7.726563s3.457031-7.726562 7.726562-7.726562h26.148438c4.265625 0 7.726562 3.460937 7.726562 7.726562s-3.460937 7.726563-7.726562 7.726563zm0 0"/></g><path d="m83.359375 240.511719c-4.265625 0-7.769531-3.457031-7.769531-7.726563 0-4.265625 3.414062-7.726562 7.679687-7.726562h.089844c4.269531 0 7.726563 3.460937 7.726563 7.726562 0 4.269532-3.457032 7.726563-7.726563 7.726563zm0 0" fill="#097789"/><path d="m105.238281 240.511719c-4.269531 0-7.773437-3.457031-7.773437-7.726563 0-4.265625 3.414062-7.726562 7.683594-7.726562h.089843c4.265625 0 7.726563 3.460937 7.726563 7.726562 0 4.269532-3.460938 7.726563-7.726563 7.726563zm0 0" fill="#097789"/><path d="m431.324219 221.210938c-18.917969 0-34.253907-15.339844-34.253907-34.257813v-19.335937c0-5.777344 4.683594-10.460938 10.460938-10.460938h47.589844c5.777344 0 10.460937 4.683594 10.460937 10.460938v19.335937c-.003906 18.917969-15.339843 34.257813-34.257812 34.257813zm0 0" fill="#d1ede7"/><path d="m433.230469 186.300781h-5.054688c-4.269531 0-7.726562-3.457031-7.726562-7.726562 0-4.265625 3.457031-7.722657 7.726562-7.722657h5.054688c4.269531 0 7.726562 3.457032 7.726562 7.722657 0 4.269531-3.460937 7.726562-7.726562 7.726562zm0 0" fill="#1a94af"/></svg>