<svg xmlns="http://www.w3.org/2000/svg" xmlns:xlink="http://www.w3.org/1999/xlink" version="1.1" style="enable-background:new 0 0 512 512;" xml:space="preserve" width="512" height="512"><rect id="backgroundrect" width="100%" height="100%" x="0" y="0" fill="none" stroke="none"/>


















<g class="currentLayer" style=""><title>Layer 1</title><g id="svg_1" class="" fill="#ffffff" fill-opacity="1">
	<g id="svg_2" fill="#ffffff" fill-opacity="1">
		<path d="M497,60h-15V15c0-8.284-6.716-15-15-15s-15,6.716-15,15v45h-30V15c0-8.284-6.716-15-15-15s-15,6.716-15,15v45h-15    c-8.284,0-15,6.716-15,15v60c0,24.813,20.187,45,45,45h15v195c0,8.271-6.729,15-15,15s-15-6.729-15-15v-90    c0-24.813-20.187-45-45-45h-15V45c0-24.813-20.187-45-45-45H75C50.187,0,30,20.187,30,45v379.58C12.541,430.772,0,447.445,0,467    v30c0,8.284,6.716,15,15,15h332c8.284,0,15-6.716,15-15v-30c0-19.555-12.541-36.228-30-42.42V270h15c8.271,0,15,6.729,15,15v90    c0,24.813,20.187,45,45,45s45-20.187,45-45V180h15c24.813,0,45-20.187,45-45V75C512,66.716,505.284,60,497,60z M60,45    c0-8.271,6.729-15,15-15h212c8.271,0,15,6.729,15,15v135H60V45z M60,210h242v212H60V210z M332,482H30v-15c0-8.271,6.729-15,15-15    h272c8.271,0,15,6.729,15,15V482z M482,135c0,8.271-6.729,15-15,15h-60c-8.271,0-15-6.729-15-15V90h90V135z" id="svg_3" fill="#ffffff" fill-opacity="1"/>
	</g>
</g><g id="svg_4" class="selected" fill="#ffffff" fill-opacity="1">
	<g id="svg_5" fill="#ffffff" fill-opacity="1">
		<path d="M223.76,307.114C221.026,302.692,216.198,300,211,300h-35.729l19.146-38.292c3.705-7.41,0.702-16.42-6.708-20.125    c-7.41-3.705-16.42-0.701-20.124,6.708l-30,60c-2.325,4.65-2.077,10.172,0.656,14.594c2.733,4.422,7.562,7.114,12.76,7.114h35.729    l-19.146,38.292c-3.705,7.41-0.702,16.42,6.708,20.125c7.423,3.712,16.427,0.687,20.124-6.708l30-60    C226.741,317.058,226.493,311.536,223.76,307.114z" id="svg_6" fill="#ffffff" fill-opacity="1"/>
	</g>
</g><g id="svg_7" class="" fill="#ffffff" fill-opacity="1">
	<g id="svg_8" fill="#ffffff" fill-opacity="1">
		<path d="M257,60H105c-8.284,0-15,6.716-15,15v60c0,8.284,6.716,15,15,15h152c8.284,0,15-6.716,15-15V75    C272,66.716,265.284,60,257,60z M242,120H120V90h122V120z" id="svg_9" fill="#ffffff" fill-opacity="1"/>
	</g>
</g><g id="svg_10">
</g><g id="svg_11">
</g><g id="svg_12">
</g><g id="svg_13">
</g><g id="svg_14">
</g><g id="svg_15">
</g><g id="svg_16">
</g><g id="svg_17">
</g><g id="svg_18">
</g><g id="svg_19">
</g><g id="svg_20">
</g><g id="svg_21">
</g><g id="svg_22">
</g><g id="svg_23">
</g><g id="svg_24">
</g></g></svg>