<svg id="Capa_1" enable-background="new 0 0 512 512" height="512" viewBox="0 0 512 512" width="512" xmlns="http://www.w3.org/2000/svg"><g><g><path d="m351.602 299.71c-4.267 0-7.726-3.459-7.726-7.726v-32.204c0-4.268 3.459-7.726 7.726-7.726s7.726 3.459 7.726 7.726v32.203c0 4.268-3.459 7.727-7.726 7.727z" fill="#cecece"/></g><g><path d="m384.83 299.71c-4.267 0-7.726-3.459-7.726-7.726v-32.204c0-4.268 3.459-7.726 7.726-7.726s7.726 3.459 7.726 7.726v32.203c0 4.268-3.459 7.727-7.726 7.727z" fill="#cecece"/></g><g><path d="m353.794 416.425h-69.122c-4.267 0-7.726-3.459-7.726-7.726s3.459-7.726 7.726-7.726h69.122c3.692 0 6.696-3.004 6.696-6.696v-67.992c0-4.268 3.459-7.726 7.726-7.726s7.726 3.459 7.726 7.726v67.992c.001 12.213-9.935 22.148-22.148 22.148z" fill="#5a5a5a"/></g><path d="m383.459 340.012h-30.486c-9.672 0-17.513-7.841-17.513-17.513v-32.235c0-2.276 1.845-4.121 4.121-4.121h57.27c2.276 0 4.121 1.845 4.121 4.121v32.235c0 9.672-7.841 17.513-17.513 17.513z" fill="#838383"/><path d="m396.851 286.143h-32.875c2.276 0 4.121 1.845 4.121 4.121v32.235c0 9.269-7.206 16.836-16.319 17.453.396.027.791.06 1.194.06h30.486c9.672 0 17.513-7.841 17.513-17.513v-32.235c.001-2.276-1.844-4.121-4.12-4.121z" fill="#5a5a5a"/><path d="m297.116 487.046h-180.282v-248.273c0-13.655 11.069-24.724 24.724-24.724h130.833c13.655 0 24.724 11.069 24.724 24.724v248.273z" fill="#0473ce"/><path d="m272.392 214.048h-32.875c13.655 0 24.724 11.069 24.724 24.724v248.274h32.875v-248.273c0-13.655-11.069-24.725-24.724-24.725z" fill="#0067c5"/><path d="m262.587 267.159h403.902v37.969h-403.902z" fill="#cecece" transform="matrix(0 1 -1 0 750.68 -178.395)"/><path d="m461.006 84.192h22.516v403.902h-22.516z" fill="#bfbfbf"/><path d="m-154.489 267.159h403.902v37.969h-403.902z" fill="#cecece" transform="matrix(0 1 -1 0 333.605 238.681)"/><path d="m501.698 125.889h-491.396c-5.69 0-10.302-4.613-10.302-10.302v-62.79c0-5.69 4.612-10.302 10.302-10.302h491.396c5.69 0 10.302 4.612 10.302 10.302v62.79c0 5.689-4.612 10.302-10.302 10.302z" fill="#0067c5"/><path d="m257.969 247.014h-50.994-50.994c-3.414 0-6.181 2.767-6.181 6.181v62.787h57.175 57.175v-62.787c0-3.414-2.767-6.181-6.181-6.181z" fill="#82aee3"/><path d="m206.975 315.983h-57.175v39.49c0 3.413 2.767 6.181 6.181 6.181h50.994 50.994c3.414 0 6.181-2.768 6.181-6.181v-39.49z" fill="#5a5a5a"/><path d="m173.71 144.56h-136.99c-4.552 0-8.241-3.69-8.241-8.241v-127.279c0-4.552 3.69-8.241 8.241-8.241h136.99c4.552 0 8.241 3.69 8.241 8.241v127.278c.001 4.552-3.689 8.242-8.241 8.242z" fill="#fee8c7"/><g><path d="m89.24 127.794c-1.446 0-2.907-.405-4.208-1.253-3.576-2.328-4.588-7.114-2.26-10.69l24.161-37.114h-17.686c-2.88 0-5.52-1.602-6.851-4.155s-1.132-5.635.517-7.996l31.936-45.721c2.443-3.498 7.26-4.354 10.759-1.909 3.498 2.444 4.353 7.26 1.909 10.759l-23.448 33.57h17.114c2.835 0 5.441 1.552 6.792 4.043 1.351 2.492 1.229 5.523-.317 7.898l-31.936 49.055c-1.481 2.276-3.956 3.513-6.482 3.513z" fill="#fece85"/></g><path d="m504.789 511.202h-497.578c-3.983 0-7.211-3.229-7.211-7.211v-31.793c0-3.983 3.229-7.211 7.211-7.211h497.577c3.983 0 7.211 3.229 7.211 7.211v31.793c.001 3.982-3.228 7.211-7.21 7.211z" fill="#9c9c9c"/><path d="m504.789 464.986h-35.042c3.983 0 7.211 3.229 7.211 7.211v31.793c0 3.983-3.229 7.211-7.211 7.211h35.042c3.983 0 7.211-3.229 7.211-7.211v-31.793c0-3.983-3.229-7.211-7.211-7.211z" fill="#838383"/><path d="m501.698 42.495h-35.042c5.69 0 10.302 4.612 10.302 10.302v62.79c0 5.69-4.612 10.302-10.302 10.302h35.042c5.69 0 10.302-4.612 10.302-10.302v-62.79c0-5.69-4.612-10.302-10.302-10.302z" fill="#0055a3"/></g></svg>