<svg height="512" viewBox="0 0 512 512" width="512" xmlns="http://www.w3.org/2000/svg"><g id="flat"><path d="m312 344v80h-288v-25.38a54.658 54.658 0 0 1 1.98-14.62 54.677 54.677 0 0 1 52.64-40z" fill="#ea9d2d"/><path d="m312 344h-200l49.26-42.22a24 24 0 0 1 15.62-5.78h77.18a24.01 24.01 0 0 1 16.97 7.03z" fill="#d9d9d9"/><path d="m312 344h-184l49.26-42.22a24 24 0 0 1 15.62-5.78h61.18a24.01 24.01 0 0 1 16.97 7.03z" fill="#ebebeb"/><path d="m208 344h16v80h-16z" fill="#d18d28"/><path d="m208 296h16v48h-16z" fill="#cdcdcd"/><path d="m152 368h32v16h-32z" fill="#d18d28"/><path d="m64 376a8 8 0 0 1 -8 8h-30.02a54.1 54.1 0 0 1 7.41-16h22.61a8 8 0 0 1 8 8z" fill="#f55648"/><circle cx="96" cy="424" fill="#ebebeb" r="32"/><path d="m96 464a40 40 0 1 1 40-40 40.045 40.045 0 0 1 -40 40zm0-64a24 24 0 1 0 24 24 24.028 24.028 0 0 0 -24-24z" fill="#cdcdcd"/><path d="m384 152a8 8 0 0 1 -8-8v-32a8 8 0 0 1 16 0v32a8 8 0 0 1 -8 8z" fill="#a8a8a8"/><circle cx="384" cy="72" fill="#99d8aa" r="48"/><path d="m311 416h146a7 7 0 0 1 7 7v25a0 0 0 0 1 0 0h-160a0 0 0 0 1 0 0v-25a7 7 0 0 1 7-7z" fill="#cdcdcd"/><path d="m340 144h88a28 28 0 0 1 28 28v244a0 0 0 0 1 0 0h-144a0 0 0 0 1 0 0v-244a28 28 0 0 1 28-28z" fill="#428dc5"/><g fill="#6cbae5"><path d="m344 360h80v24h-80z"/><path d="m344 328h80v24h-80z"/><path d="m344 296h80v24h-80z"/><path d="m400 256v-16h-32v16h-24v32h80v-32z"/></g><path d="m383.994 96a8 8 0 0 1 -7.149-11.58l2.211-4.42h-3.056a8 8 0 0 1 -7.155-11.578l8-16a8 8 0 1 1 14.31 7.156l-2.211 4.422h3.056a8 8 0 0 1 7.155 11.578l-8 16a8 8 0 0 1 -7.161 4.422z" fill="#ea9d2d"/><path d="m256 384v-16a16.019 16.019 0 0 0 16-16v-136a32.036 32.036 0 0 1 32-32h8v16h-8a16.019 16.019 0 0 0 -16 16v136a32.036 32.036 0 0 1 -32 32z" fill="#99d8aa"/><circle cx="256" cy="376" fill="#99d8aa" r="16"/><path d="m16 448h480v40h-480z" fill="#4799cf"/><rect fill="#37c9c3" height="32" rx="4" width="80" x="344" y="176"/><path d="m416 188v20h-68a4 4 0 0 1 -4-4v-20h68a4 4 0 0 1 4 4z" fill="#41dfd0"/><path d="m304 424h160v24h-160z" fill="#b9b9b9"/></g></svg>