<?xml version="1.0" encoding="utf-8"?>
<!-- Generator: Adobe Illustrator 19.0.0, SVG Export Plug-In . SVG Version: 6.00 Build 0)  -->
<svg version="1.1" id="Capa_1" xmlns="http://www.w3.org/2000/svg" xmlns:xlink="http://www.w3.org/1999/xlink" x="0px" y="0px"
	 viewBox="-49 141 512 512" style="enable-background:new -49 141 512 512;" xml:space="preserve">
<style type="text/css">
	.st0{fill:#F78E2F;}
</style>
<g>
	<g>
		<path class="st0" d="M207,653c141.3,0,256-114.7,256-256S348.3,141,207,141S-49,255.7-49,397S65.7,653,207,653z M188.7,250.7
			c0-10.1,8.2-18.3,18.3-18.3s18.3,8.2,18.3,18.3v137.5l84.6,67.7c7.9,6.3,9.1,17.8,2.8,25.7c-3.6,4.5-8.9,6.9-14.3,6.9
			c-4,0-8-1.3-11.4-4l-91.4-73.1c-4.3-3.5-6.9-8.7-6.9-14.3L188.7,250.7L188.7,250.7z"/>
	</g>
</g>
</svg>
