<?xml version="1.0" encoding="utf-8"?>
<!-- Generator: Adobe Illustrator 19.0.0, SVG Export Plug-In . SVG Version: 6.00 Build 0)  -->
<svg version="1.1" id="Layer_1" xmlns="http://www.w3.org/2000/svg" xmlns:xlink="http://www.w3.org/1999/xlink" x="0px" y="0px"
	 viewBox="-12 254.8 303 295" style="enable-background:new -12 254.8 303 295;" xml:space="preserve">
<style type="text/css">
	.st0{fill:#B5C0D2;}
</style>
<path class="st0" d="M182.9,402.9c-0.7-0.7-0.7-1.8,0-2.5l83.7-83.8c7.2-7.2,7.2-18.8,0-26L250,274c-3.5-3.5-8.1-5.4-13-5.4
	s-9.5,1.9-13,5.4l-83.7,83.8c-0.4,0.4-0.9,0.5-1.2,0.5c-0.3,0-0.8-0.1-1.2-0.5L54.2,274c-3.5-3.5-8.1-5.4-13-5.4s-9.5,1.9-13,5.4
	l-16.6,16.6c-7.2,7.2-7.2,18.8,0,26l83.7,83.8c0.7,0.7,0.7,1.8,0,2.5l-83.7,83.8c-7.2,7.2-7.2,18.8,0,26l16.6,16.6
	c3.5,3.5,8.1,5.4,13,5.4s9.5-1.9,13-5.4l83.7-83.8c0.4-0.4,0.9-0.5,1.2-0.5c0.3,0,0.8,0.1,1.2,0.5l83.7,83.8c3.5,3.5,8.1,5.4,13,5.4
	s9.5-1.9,13-5.4l16.6-16.6c7.2-7.2,7.2-18.8,0-26L182.9,402.9z"/>
</svg>
