<?xml version="1.0" encoding="utf-8"?>
<!-- Generator: Adobe Illustrator 19.0.0, SVG Export Plug-In . SVG Version: 6.00 Build 0)  -->
<svg version="1.1" id="Layer_1" xmlns="http://www.w3.org/2000/svg" xmlns:xlink="http://www.w3.org/1999/xlink" x="0px" y="0px"
	 viewBox="-157 248 297 297" style="enable-background:new -157 248 297 297;" xml:space="preserve">
<style type="text/css">
	.st0{fill:#CC5885;}
</style>
<g>
	<path class="st0" d="M-111,309.9c3.3,2.5,8,1.9,10.5-1.4C-78.4,279.6-45,263-8.7,263s69.8,16.6,91.8,45.5c1.5,1.9,3.7,2.9,6,2.9
		c1.6,0,3.2-0.5,4.5-1.5c3.3-2.5,3.9-7.2,1.4-10.5C70.1,266.7,32.3,248-8.7,248s-78.8,18.7-103.7,51.4
		C-114.9,302.7-114.3,307.4-111,309.9z"/>
	<path class="st0" d="M70.8,349.8c0,12.9,10.5,23.4,23.4,23.4s23.4-10.5,23.4-23.4s-10.5-23.4-23.4-23.4S70.8,336.9,70.8,349.8
		L70.8,349.8z"/>
	<path class="st0" d="M118.1,380.9c-0.1,0-5.9-1.8-5.9-1.8c-2.1-0.7-4.4-0.3-6.2,1.1L94.3,389l-11.7-8.8c-1.8-1.3-4.1-1.7-6.2-1.1
		l-5.9,1.8c-9.5,3.2-15.8,12-15.8,22v35.3c0,1.4,0.4,2.7,1.1,3.8l11.8,18v47.4c0,3.9,3.1,7,7,7h39.6c3.9,0,7-3.1,7-7V460l11.8-18
		c0.7-1.1,1.1-2.5,1.1-3.8v-35.3C134,392.9,127.6,384.1,118.1,380.9L118.1,380.9z"/>
	<path class="st0" d="M-111.6,373.2c12.9,0,23.4-10.5,23.4-23.4s-10.5-23.4-23.4-23.4s-23.4,10.5-23.4,23.4
		S-124.5,373.2-111.6,373.2z"/>
	<path class="st0" d="M-87.7,380.9c-0.1,0-5.9-1.8-5.9-1.8c-2.1-0.7-4.4-0.3-6.2,1.1l-11.7,8.8l-11.7-8.8c-1.8-1.3-4.1-1.7-6.2-1.1
		l-5.9,1.8c-9.5,3.2-15.8,12-15.8,22v35.3c0,1.4,0.4,2.7,1.1,3.8l11.8,18v47.4c0,3.9,3.1,7,7,7h39.6c3.9,0,7-3.1,7-7V460l11.8-18
		c0.7-1.1,1.1-2.5,1.1-3.8v-35.3C-71.9,392.9-78.2,384.1-87.7,380.9z"/>
	<path class="st0" d="M21.4,316.9c0-16.6-13.5-30.1-30.1-30.1s-30.1,13.5-30.1,30.1S-25.3,347-8.7,347S21.4,333.5,21.4,316.9z"/>
	<path class="st0" d="M24.4,361.6L24.4,361.6l-8.7-2.7c-1.4-0.4-2.8,0.3-3.3,1.6l-18.1,49.6c-1,2.9-5.1,2.9-6.1,0l-18.1-49.6
		c-0.4-1.1-1.4-1.8-2.5-1.8c-0.3,0-9.4,2.8-9.4,2.8c-11,3.7-18.3,13.9-18.3,25.4v52.5c0,0.5,0.2,1,0.4,1.5l18.9,28.7v72.7
		c0,1.5,1.2,2.7,2.7,2.7h58.8c1.5,0,2.7-1.2,2.7-2.7v-72.7l18.9-28.7c0.3-0.4,0.4-0.9,0.4-1.5v-52.6
		C42.7,375.3,35.3,365.2,24.4,361.6L24.4,361.6z"/>
	<path class="st0" d="M-1.6,360.6c-0.7-0.8-1.8-1.2-2.9-1.2h-8.2c-1.1,0-2.2,0.4-2.9,1.2c-1.2,1.3-1.3,3.1-0.5,4.5l4.4,6.6
		l-2.1,17.4l4.1,10.8c0.4,1.1,1.9,1.1,2.3,0l4.1-10.8l-2.1-17.4l4.4-6.6C-0.3,363.6-0.5,361.8-1.6,360.6z"/>
</g>
</svg>
