<?xml version="1.0" encoding="utf-8"?>
<!-- Generator: Adobe Illustrator 19.0.0, SVG Export Plug-In . SVG Version: 6.00 Build 0)  -->
<svg version="1.1" id="Layer_1" xmlns="http://www.w3.org/2000/svg" xmlns:xlink="http://www.w3.org/1999/xlink" x="0px" y="0px"
	 viewBox="-283 285 512 512" style="enable-background:new -283 285 512 512;" xml:space="preserve">
<style type="text/css">
	.st0{fill:#9FADC1;}
</style>
<g>
	<path class="st0" d="M-27,285c-140.8,0-256,115.2-256,256s115.2,256,256,256s256-115.2,256-256S113.8,285-27,285z M-27,515.4
		c48.6,0,89.6,41,89.6,89.6c0,41-28.2,74.2-64,84.5v30.7h-51.2v-30.7c-35.8-10.2-64-46.1-64-84.5h51.2c0,51.2,76.8,51.2,76.8,0
		c0-20.5-17.9-38.4-38.4-38.4c-48.6,0-89.6-41-89.6-89.6c0-41,28.2-74.2,64-84.5v-30.7h51.2v30.7c35.8,10.2,64,46.1,64,84.5H11.4
		c0-51.2-76.8-51.2-76.8,0C-65.4,497.5-47.5,515.4-27,515.4z"/>
</g>
</svg>
