<?xml version="1.0" encoding="utf-8"?>
<!-- Generator: Adobe Illustrator 19.0.0, SVG Export Plug-In . SVG Version: 6.00 Build 0)  -->
<svg version="1.1" id="Layer_1" xmlns="http://www.w3.org/2000/svg" xmlns:xlink="http://www.w3.org/1999/xlink" x="0px" y="0px"
	 viewBox="-49 141 512 512" style="enable-background:new -49 141 512 512;" xml:space="preserve">
<style type="text/css">
	.st0{fill:#F78E2F;}
</style>
<g>
	<path class="st0" d="M207,141C66.2,141-49,256.2-49,397S66.2,653,207,653s256-115.2,256-256S347.8,141,207,141z M207,371.4
		c48.6,0,89.6,41,89.6,89.6c0,41-28.2,74.2-64,84.5v30.7h-51.2v-30.7c-35.8-10.2-64-46.1-64-84.5h51.2c0,51.2,76.8,51.2,76.8,0
		c0-20.5-17.9-38.4-38.4-38.4c-48.6,0-89.6-41-89.6-89.6c0-41,28.2-74.2,64-84.5v-30.7h51.2v30.7c35.8,10.2,64,46.1,64,84.5h-51.2
		c0-51.2-76.8-51.2-76.8,0C168.6,353.5,186.5,371.4,207,371.4z"/>
</g>
</svg>
