<?xml version="1.0" encoding="utf-8"?>
<!-- Generator: Adobe Illustrator 19.0.0, SVG Export Plug-In . SVG Version: 6.00 Build 0)  -->
<svg version="1.1" id="Layer_1" xmlns="http://www.w3.org/2000/svg" xmlns:xlink="http://www.w3.org/1999/xlink" x="0px" y="0px"
	 viewBox="-283 285 512 512" style="enable-background:new -283 285 512 512;" xml:space="preserve">
<style type="text/css">
	.st0{fill:#78859B;}
</style>
<path class="st0" d="M-12,797h-191c-44.1,0-80-35.9-80-80V446c0-44.1,35.9-80,80-80h191c44.1,0,80,35.9,80,80v271
	C68,761.1,32.1,797-12,797z M-203,406c-22.1,0-40,17.9-40,40v271c0,22.1,17.9,40,40,40h191c22.1,0,40-17.9,40-40V446
	c0-22.1-17.9-40-40-40H-203z M148,667V365c0-44.1-35.9-80-80-80h-222c-11,0-20,9-20,20s9,20,20,20H68c22.1,0,40,17.9,40,40v302
	c0,11,9,20,20,20S148,678,148,667z"/>
</svg>
