<?xml version="1.0" encoding="utf-8"?>
<!-- Generator: Adobe Illustrator 19.0.0, SVG Export Plug-In . SVG Version: 6.00 Build 0)  -->
<svg version="1.1" id="Layer_1" xmlns="http://www.w3.org/2000/svg" xmlns:xlink="http://www.w3.org/1999/xlink" x="0px" y="0px"
	 viewBox="-49 141 512 512" style="enable-background:new -49 141 512 512;" xml:space="preserve">
<style type="text/css">
	.st0{fill:#8FCCA5;}
</style>
<g>
	<g>
		<path class="st0" d="M395.6,440.7c-5.9-76.4-41.4-124.2-72.8-166.4c-29-39.1-54.1-72.9-54.1-122.6c0-4-2.2-7.7-5.8-9.5
			c-3.6-1.8-7.8-1.5-11.1,0.8c-47.1,33.6-86.4,90.4-100.1,144.6c-9.5,37.7-10.8,80.2-11,108.2c-43.5-9.3-53.4-74.4-53.5-75.1
			c-0.5-3.4-2.6-6.3-5.6-7.9c-3-1.6-6.6-1.7-9.7-0.2c-2.3,1.1-56,28.4-59.1,137.4c-0.1,3.6-0.1,7.3-0.1,10.9
			C12.7,566.8,98.8,653,204.8,653c0.1,0,0.3,0,0.4,0h0.1c105.7-0.3,191.6-86.3,191.6-192.1C396.7,455.6,395.6,440.7,395.6,440.7z
			 M204.7,631.7c-35.3,0-64-30.6-64-68.2c0-1.3,0-2.6,0.1-4.2c0.4-15.9,3.4-26.7,6.7-33.9c6.2,13.3,17.3,25.6,35.2,25.6
			c5.9,0,10.7-4.8,10.7-10.7c0-15.2,0.3-32.7,4.1-48.5c3.4-14,11.4-28.9,21.6-40.9c4.5,15.5,13.4,28.1,22,40.3
			c12.3,17.5,25.1,35.7,27.3,66.6c0.1,1.8,0.3,3.7,0.3,5.7C268.7,601.1,240,631.7,204.7,631.7z"/>
	</g>
</g>
</svg>
