<svg xmlns="http://www.w3.org/2000/svg" xmlns:xlink="http://www.w3.org/1999/xlink" version="1.1" width="444.819" height="444.819" style="enable-background:new 0 0 444.819 444.819;" xml:space="preserve"><rect id="backgroundrect" width="100%" height="100%" x="0" y="0" fill="none" stroke="none"/>
















<g class="currentLayer" style=""><title>Layer 1</title><g id="svg_1" class="selected" fill="#eb1a1a" fill-opacity="1">
	<path d="M434.252,185.721l-21.409-21.413c-7.419-7.042-16.084-10.564-25.975-10.564c-10.095,0-18.657,3.521-25.7,10.564   l-83.938,83.939V47.255c0-9.9-3.621-18.464-10.855-25.697c-7.234-7.232-15.797-10.85-25.693-10.85h-36.545   c-9.897,0-18.464,3.621-25.693,10.85c-7.236,7.233-10.85,15.797-10.85,25.697v200.992l-83.939-83.939   c-7.042-7.042-15.606-10.564-25.697-10.564c-9.896,0-18.559,3.521-25.979,10.564l-21.128,21.413C3.615,192.948,0,201.615,0,211.7   c0,10.282,3.619,18.848,10.848,25.698l185.864,186.146c7.045,7.046,15.609,10.567,25.697,10.567   c9.897,0,18.558-3.521,25.977-10.567l185.865-186.146c7.043-7.043,10.567-15.608,10.567-25.698   C444.819,201.805,441.295,193.145,434.252,185.721z" id="svg_2" fill="#eb1a1a" fill-opacity="1"/>
</g><g id="svg_3">
</g><g id="svg_4">
</g><g id="svg_5">
</g><g id="svg_6">
</g><g id="svg_7">
</g><g id="svg_8">
</g><g id="svg_9">
</g><g id="svg_10">
</g><g id="svg_11">
</g><g id="svg_12">
</g><g id="svg_13">
</g><g id="svg_14">
</g><g id="svg_15">
</g><g id="svg_16">
</g><g id="svg_17">
</g></g></svg>