<svg xmlns="http://www.w3.org/2000/svg" enable-background="new 0 0 24 24" height="25.473688906983284" width="22.479539782439474"><rect id="backgroundrect" width="100%" height="100%" x="0" y="0" fill="none" stroke="none" class="" style=""/><g class="currentLayer" style=""><title>Layer 1</title><g id="svg_1" class="" fill="#ffffff" fill-opacity="1"><path d="m21.5 24h-18c-1.378 0-2.5-1.121-2.5-2.5v-19c0-.276.224-.5.5-.5s.5.224.5.5v19c0 .827.673 1.5 1.5 1.5h17.5v-18.5c0-.276.224-.5.5-.5s.5.224.5.5v19c0 .276-.224.5-.5.5z" id="svg_2" fill="#ffffff" fill-opacity="1"/></g><g id="svg_3" class="" fill="#ffffff" fill-opacity="1"><path d="m21.5 5h-18c-1.378 0-2.5-1.121-2.5-2.5s1.122-2.5 2.5-2.5h16c.276 0 .5.224.5.5v3.5h1.5c.276 0 .5.224.5.5s-.224.5-.5.5zm-18-4c-.827 0-1.5.673-1.5 1.5s.673 1.5 1.5 1.5h15.5v-3z" id="svg_4" fill="#ffffff" fill-opacity="1"/></g><g id="svg_5" class="" fill="#ffffff" fill-opacity="1"><path d="m11.5 20.5c-3.584 0-6.5-2.916-6.5-6.5s2.916-6.5 6.5-6.5 6.5 2.916 6.5 6.5-2.916 6.5-6.5 6.5zm0-12c-3.033 0-5.5 2.468-5.5 5.5s2.467 5.5 5.5 5.5 5.5-2.468 5.5-5.5-2.467-5.5-5.5-5.5z" id="svg_6" fill="#ffffff" fill-opacity="1"/></g><g id="svg_7" class="" fill="#ffffff" fill-opacity="1"><path d="m13.5 16.5c-.128 0-.256-.049-.354-.146l-2-2c-.093-.094-.146-.221-.146-.354v-3c0-.276.224-.5.5-.5s.5.224.5.5v2.793l1.854 1.854c.195.195.195.512 0 .707-.098.097-.226.146-.354.146z" id="svg_8" fill="#ffffff" fill-opacity="1"/></g></g></svg>