<?xml version="1.0" encoding="utf-8"?>
<!-- Generator: Adobe Illustrator 19.0.0, SVG Export Plug-In . SVG Version: 6.00 Build 0)  -->
<svg version="1.1" id="Layer_1" xmlns="http://www.w3.org/2000/svg" xmlns:xlink="http://www.w3.org/1999/xlink" x="0px" y="0px"
	 viewBox="-49 141 512 512" style="enable-background:new -49 141 512 512;" xml:space="preserve">
<style type="text/css">
	.st0{fill:#F2E146;}
</style>
<g>
	<g>
		<path class="st0" d="M207,141C65.5,141-49,255.5-49,397c0,141.5,114.5,256,256,256c141.5,0,256-114.5,256-256
			C463,255.5,348.5,141,207,141z M233.3,498.6c0,8.1-11.8,16.2-26.3,16.2c-15.2,0-25.9-8.1-25.9-16.2V370.2
			c0-9.4,10.8-15.8,25.9-15.8c14.5,0,26.3,6.4,26.3,15.8V498.6z M207,323.4c-15.5,0-27.6-11.5-27.6-24.3c0-12.8,12.1-23.9,27.6-23.9
			c15.2,0,27.3,11.1,27.3,23.9C234.3,311.9,222.2,323.4,207,323.4z"/>
	</g>
</g>
</svg>
