<?xml version="1.0" encoding="utf-8"?>
<!-- Generator: Adobe Illustrator 19.0.0, SVG Export Plug-In . SVG Version: 6.00 Build 0)  -->
<svg version="1.1" id="Layer_1" xmlns="http://www.w3.org/2000/svg" xmlns:xlink="http://www.w3.org/1999/xlink" x="0px" y="0px"
	 viewBox="-49 141 512 512" style="enable-background:new -49 141 512 512;" xml:space="preserve">
<style type="text/css">
	.st0{fill:#EF8E9E;}
</style>
<g id="Layer_47">
	<path class="st0" d="M414.3,387.5c12-12.2,16-30.1,10.5-46.3c-5.2-16.2-19.2-28.1-36.1-30.5l-91.5-14.1c-0.9-0.3-1.6-0.9-1.9-1.7
		l-40.1-85.3c-7.2-16.3-23.3-26.9-41.2-26.9c-17.6-0.1-33.7,10.2-41,26.2l-40.1,85.3c-0.4,0.8-1.2,1.5-2.1,1.7l-91.3,14.7
		C22.6,313.2,8.6,325,3.2,341.2c-5.3,16.2-1.2,34,10.7,46.3l67.4,69.3c0.4,0.9,0.4,1.9,0,2.8l-15.8,96.9
		c-4.3,24.6,12.2,48,36.8,52.3c10.3,1.8,20.9,0,30-5.2l79.6-44.2c0.8-0.4,1.8-0.4,2.6,0l79.6,44.2c22,12.1,49.6,4.1,61.7-17.9
		c4.9-8.9,6.7-19.2,5-29.3L346.1,460c-0.5-0.8-0.5-1.8,0-2.6L414.3,387.5z"/>
</g>
</svg>
