<?xml version="1.0" standalone="no"?>
<!DOCTYPE svg PUBLIC "-//W3C//DTD SVG 20010904//EN"
 "http://www.w3.org/TR/2001/REC-SVG-20010904/DTD/svg10.dtd">
<svg version="1.0" xmlns="http://www.w3.org/2000/svg"
 width="375.000000pt" height="238.000000pt" viewBox="0 0 375.000000 238.000000"
 preserveAspectRatio="xMidYMid meet">

<g transform="translate(0.000000,238.000000) scale(0.100000,-0.100000)"
fill="#000000" stroke="none">
<path d="M2445 535 c0 -57 4 -95 10 -95 6 0 9 36 7 95 -2 52 -6 95 -10 95 -4
0 -7 -43 -7 -95z"/>
<path d="M2740 590 c0 -5 5 -10 10 -10 6 0 10 5 10 10 0 6 -4 10 -10 10 -5 0
-10 -4 -10 -10z"/>
<path d="M2648 554 c-2 -5 -3 -33 0 -61 4 -50 6 -53 30 -52 26 0 26 1 5 9 -18
7 -23 17 -23 45 0 29 4 35 23 36 20 1 20 2 2 6 -11 3 -23 10 -26 15 -4 6 -8 6
-11 2z"/>
<path d="M2317 532 c-28 -31 -14 -92 20 -92 14 0 14 2 -1 19 -23 25 -18 75 8
80 39 7 63 -68 29 -88 -10 -6 -13 -11 -7 -11 16 0 44 34 44 53 0 23 -35 57
-58 57 -11 0 -26 -8 -35 -18z"/>
<path d="M2515 543 c-7 -2 -9 -22 -5 -51 l5 -47 45 -2 45 -2 -3 54 c-4 65 -27
67 -27 2 0 -36 -3 -42 -22 -45 -20 -3 -22 2 -25 46 -2 28 -7 47 -13 45z"/>
<path d="M2745 543 c-14 -4 -6 -103 9 -103 7 0 10 15 8 43 -4 60 -6 64 -17 60z"/>
<path d="M2857 540 c28 -11 39 -50 23 -82 l-11 -23 21 24 c30 35 6 92 -39 90
-10 0 -8 -4 6 -9z"/>
<path d="M2981 541 c-7 -5 -21 -7 -30 -4 -13 3 -16 -5 -16 -46 0 -39 4 -51 15
-51 12 0 15 8 12 37 -5 39 17 67 44 56 18 -7 19 -79 2 -86 -7 -3 1 -6 17 -6
17 0 25 3 18 7 -6 4 -13 27 -15 52 -3 46 -18 59 -47 41z"/>
<path d="M2812 528 c-27 -27 -8 -88 27 -88 11 0 11 3 -3 13 -14 10 -17 23 -14
50 2 20 4 37 3 37 -1 0 -6 -5 -13 -12z"/>
</g>
</svg>
