<?xml version="1.0" encoding="utf-8"?>
<!-- Generator: Adobe Illustrator 19.0.0, SVG Export Plug-In . SVG Version: 6.00 Build 0)  -->
<svg version="1.1" id="Capa_1" xmlns="http://www.w3.org/2000/svg" xmlns:xlink="http://www.w3.org/1999/xlink" x="0px" y="0px"
	 viewBox="-49 141 512 512" style="enable-background:new -49 141 512 512;" xml:space="preserve">
<g>
	<path d="M444.3,442.3c-25,25-65.5,25-90.5,0c-25-25-25-65.5,0-90.5c25-25,65.5-25,90.5,0C469.2,376.7,469.2,417.3,444.3,442.3"/>
	<path d="M252.3,442.3c-25,25-65.5,25-90.5,0c-25-25-25-65.5,0-90.5c25-25,65.5-25,90.5,0C277.2,376.7,277.2,417.3,252.3,442.3"/>
	<path d="M60.3,442.3c-25,25-65.5,25-90.5,0c-25-25-25-65.5,0-90.5c25-25,65.5-25,90.5,0C85.2,376.7,85.2,417.3,60.3,442.3"/>
</g>
</svg>
