<?xml version="1.0" encoding="utf-8"?>
<!-- Generator: Adobe Illustrator 19.0.0, SVG Export Plug-In . SVG Version: 6.00 Build 0)  -->
<svg version="1.1" id="Layer_1" xmlns="http://www.w3.org/2000/svg" xmlns:xlink="http://www.w3.org/1999/xlink" x="0px" y="0px"
	 viewBox="-162 253.9 286.1 286.1" style="enable-background:new -162 253.9 286.1 286.1;" xml:space="preserve">
<style type="text/css">
	.st0{fill:#0F9CEA;}
</style>
<g>
	<path class="st0" d="M-19,253.9c-79,0-143,64-143,143c0,79,64,143,143,143c79,0,143-64,143-143C124,318,60,253.9-19,253.9z
		 M-19,513.2c-64.2,0-116.2-52-116.2-116.2s52-116.2,116.2-116.2c64.2,0,116.2,52,116.2,116.2S45.2,513.2-19,513.2z M34.8,379.1
		H-1.1v-35.8c0-4.9-4-8.9-8.9-8.9h-17.9c-4.9,0-8.9,4-8.9,8.9v35.8h-35.7c-5,0-9,4-9,8.9v17.9c0,4.9,4,8.9,9,8.9h35.7v35.7
		c0,4.9,4,8.9,8.9,8.9H-10c4.9,0,8.9-4,8.9-8.9v-35.7h35.9c5,0,9-4,9-8.9V388C43.8,383.1,39.8,379.1,34.8,379.1z"/>
</g>
</svg>
