<?xml version="1.0" encoding="utf-8"?>
<!-- Generator: Adobe Illustrator 19.0.0, SVG Export Plug-In . SVG Version: 6.00 Build 0)  -->
<svg version="1.1"
	 id="Layer_1" sodipodi:docname="plus-orange.svg" inkscape:version="0.92.3 (2405546, 2018-03-11)" xmlns:dc="http://purl.org/dc/elements/1.1/" xmlns:rdf="http://www.w3.org/1999/02/22-rdf-syntax-ns#" xmlns:inkscape="http://www.inkscape.org/namespaces/inkscape" xmlns:cc="http://creativecommons.org/ns#" xmlns:svg="http://www.w3.org/2000/svg" xmlns:sodipodi="http://sodipodi.sourceforge.net/DTD/sodipodi-0.dtd"
	 xmlns="http://www.w3.org/2000/svg" xmlns:xlink="http://www.w3.org/1999/xlink" x="0px" y="0px" viewBox="-162 253.9 286.1 286.1"
	 style="enable-background:new -162 253.9 286.1 286.1;" xml:space="preserve">
<style type="text/css">
	.st0{fill:#FF8E12;fill-opacity:0.9412;}
</style>
<sodipodi:namedview  id="namedview9" inkscape:window-y="-9" inkscape:window-height="1013" inkscape:window-x="-9" inkscape:window-width="1920" inkscape:pageshadow="2" inkscape:pageopacity="0" inkscape:window-maximized="1" inkscape:current-layer="Layer_1" inkscape:zoom="0.82488639" gridtolerance="10" guidetolerance="10" inkscape:cx="143.05" inkscape:cy="143.05" bordercolor="#666666" objecttolerance="10" showgrid="false" borderopacity="1" pagecolor="#ffffff">
	</sodipodi:namedview>
<g id="g6">
	<path id="path4" class="st0" d="M-18.9,253.9c-79,0-143,64-143,143s64,143,143,143s143-64,143-143C124.1,318,60.1,253.9-18.9,253.9
		z M-18.9,513.3c-64.2,0-116.2-52-116.2-116.2s52-116.2,116.2-116.2S97.3,332.8,97.3,397S45.3,513.3-18.9,513.3z M34.9,379.1H-1
		v-35.8c0-4.9-4-8.9-8.9-8.9h-17.9c-4.9,0-8.9,4-8.9,8.9v35.8h-35.7c-5,0-9,4-9,8.9v17.9c0,4.9,4,8.9,9,8.9h35.7v35.7
		c0,4.9,4,8.9,8.9,8.9h17.9c4.9,0,8.9-4,8.9-8.9v-35.7h35.9c5,0,9-4,9-8.9V388C43.9,383.1,39.9,379.1,34.9,379.1z"/>
</g>
</svg>
