<?xml version="1.0" encoding="utf-8"?>
<!-- Generator: Adobe Illustrator 19.0.0, SVG Export Plug-In . SVG Version: 6.00 Build 0)  -->
<svg version="1.1" id="Layer_1" xmlns="http://www.w3.org/2000/svg" xmlns:xlink="http://www.w3.org/1999/xlink" x="0px" y="0px"
	 viewBox="-283 285 512 512" style="enable-background:new -283 285 512 512;" xml:space="preserve">
<style type="text/css">
	.st0{fill:#78859B;}
</style>
<g>
	<g id="iconos_60_">
		<path class="st0" d="M-11.4,290.3v8.8l-243.3,80.5L-268,381v71.8h34.2V560l-11.6,12.5l10.2,77h9.9v23c0,0-12.6,1.1-12.6,30.4
			c0,19.4,11.5,25.9,31.9,25.9c22.6,0,26.8-12.1,26.8-29.9c0,0-7.1,13.4-25.6,13.4c-13.2,0-15.2-7.5-15.2-13.4
			c0-6.8,1.1-14.6,20.3-14.6v-34.7h10.2l10.2-77l-11.9-12.5V452.8h59.9v36.7l25.9,40.3h51.1v171.1h-42.8V795h205.3v-94.1H65.6V452.8
			H117v77h94.1v-77h8.6v-71.5l-12.1-1.8L31.4,301.1v-10.8H-11.4z M40,506.3v40.6H-0.1L40,506.3z M13.6,581.1L-28.5,621v-39.9H13.6z
			 M-28.5,528.6V487h42.7L-28.5,528.6z M-28.5,384.4h45.6l-41.4,42.8h-4.3L-28.5,384.4L-28.5,384.4z M-28.5,666.7H5.8l-25.7,25.7
			h-8.6V666.7z M40,632.5H10.7l29.3-31L40,632.5L40,632.5z M40,427.1H2.5l37.4-39V427.1z M40,692.3H11.5L40,665.3V692.3z M-11.4,317
			v34.5l-159.8,18.4L-11.4,317z M-224.4,580.1c0-6.7,5.4-12.1,12.1-12.1s12.1,5.4,12.1,12.1c0,6.7-5.4,12.1-12.1,12.1
			C-218.9,592.2-224.4,586.8-224.4,580.1z M-199.6,551l-3.9-4.1h-18.2l-3.6,3.9v-98h25.7L-199.6,551L-199.6,551z M-191,435.7h-8.6
			h-25.7h-8.6h-17.1v-39.4l196.8-23.1v13.4v40.6v8.6H-191z M65.6,435.7v-8.6v-48.6l2.2-2.2L202.5,396v39.7L65.6,435.7L65.6,435.7z
			 M143.9,369.9L31.4,353v-33.1L143.9,369.9z"/>
	</g>
</g>
</svg>
