<?xml version="1.0" encoding="utf-8"?>
<!-- Generator: Adobe Illustrator 19.0.0, SVG Export Plug-In . SVG Version: 6.00 Build 0)  -->
<svg version="1.1" id="Capa_1" xmlns="http://www.w3.org/2000/svg" xmlns:xlink="http://www.w3.org/1999/xlink" x="0px" y="0px"
	 viewBox="-130 222 350 350" style="enable-background:new -130 222 350 350;" xml:space="preserve">
<style type="text/css">
	.st0{fill:#B5C0D2;}
</style>
<g>
	<g>
		<path class="st0" d="M207.6,497.8L150,440.2c10.5-20.9,17.5-45.4,17.5-69.8c0-82-66.3-148.4-148.4-148.4s-148.4,66.3-148.4,148.4
			S-63,518.8,19.1,518.8c24.4,0,48.9-7,69.8-17.5l57.6,57.6c17.5,17.5,43.6,17.5,61.1,0C223.3,541.5,223.3,515.3,207.6,497.8z
			 M19.1,483.8c-62.8,0-113.5-50.6-113.5-113.5s50.6-113.5,113.5-113.5s113.5,50.6,113.5,113.5S81.9,483.8,19.1,483.8z"/>
	</g>
</g>
</svg>
