<?xml version="1.0" encoding="utf-8"?>
<!-- Generator: Adobe Illustrator 19.0.0, SVG Export Plug-In . SVG Version: 6.00 Build 0)  -->
<svg version="1.1" id="Layer_1" xmlns="http://www.w3.org/2000/svg" xmlns:xlink="http://www.w3.org/1999/xlink" x="0px" y="0px"
	 viewBox="-75 166.9 460.1 460.1" style="enable-background:new -75 166.9 460.1 460.1;" xml:space="preserve">
<style type="text/css">
	.st0{fill:#B5C0D2;}
</style>
<g>
	<g>
		<g>
			<path class="st0" d="M-49.4,306.8h257.5v-51.1H-49.4c-14.1,0-25.6,11.4-25.6,25.6S-63.6,306.8-49.4,306.8z"/>
			<path class="st0" d="M-49.4,409.3h257.5v-51.1H-49.4c-14.1,0-25.6,11.4-25.6,25.6C-75,397.9-63.6,409.3-49.4,409.3z"/>
			<path class="st0" d="M-49.4,460.8L-49.4,460.8c-14.1,0-25.6,11.4-25.6,25.6s11.4,25.6,25.6,25.6h178.9c-2-6.2-3.1-12.8-3.1-19.5
				c0-11.3,3-22.1,8.5-31.6L-49.4,460.8L-49.4,460.8z"/>
			<path class="st0" d="M375.6,469.5c-12.6-12.6-33.1-12.6-45.7,0l-26.5,26.5V219.8c0-17.8-14.5-32.3-32.3-32.3
				s-32.3,14.5-32.3,32.3v276.2l-26.5-26.5c-12.6-12.6-33.1-12.6-45.7,0c-12.6,12.6-12.6,33.1,0,45.7l81.7,81.7
				c12.6,12.6,33.1,12.6,45.7,0l81.7-81.7C388.2,502.6,388.2,482.1,375.6,469.5z"/>
		</g>
	</g>
</g>
</svg>
