<?xml version="1.0" encoding="utf-8"?>
<!-- Generator: Adobe Illustrator 19.0.0, SVG Export Plug-In . SVG Version: 6.00 Build 0)  -->
<svg version="1.1" id="Capa_1" xmlns="http://www.w3.org/2000/svg" xmlns:xlink="http://www.w3.org/1999/xlink" x="0px" y="0px"
	 viewBox="-100 192.4 409.6 409.6" style="enable-background:new -100 192.4 409.6 409.6;" xml:space="preserve">
<style type="text/css">
	.st0{fill:#AA8BCC;}
</style>
<g>
	<g>
		<g>
			<path class="st0" d="M-88.3,358.4c-2.3,2.3-2.3,5.9,0,8.2l32.9,32.9c2.3,2.3,5.9,2.3,8.2,0c84-84,220.6-84,304.5,0
				c2.3,2.3,5.9,2.3,8.2,0l32.9-32.9c2.3-2.3,2.3-5.9,0-8.2C191.9,251.8,18.4,251.8-88.3,358.4z"/>
		</g>
	</g>
	<g>
		<g>
			<path class="st0" d="M-22.4,424.2c-2.3,2.3-2.3,5.9,0,8.2l32.9,32.9c2.3,2.3,5.9,2.3,8.2,0c47.6-47.6,125.2-47.6,172.8,0
				c2.3,2.3,5.9,2.3,8.2,0l32.9-32.9c2.3-2.3,2.3-5.9,0-8.2C162.4,353.9,48,353.9-22.4,424.2z"/>
		</g>
	</g>
	<g>
		<g>
			<circle class="st0" cx="105.1" cy="502.4" r="40.8"/>
		</g>
	</g>
</g>
</svg>
