<?xml version="1.0" encoding="utf-8"?>
<!-- Generator: Adobe Illustrator 19.0.0, SVG Export Plug-In . SVG Version: 6.00 Build 0)  -->
<svg version="1.1" xmlns="http://www.w3.org/2000/svg" xmlns:xlink="http://www.w3.org/1999/xlink" x="0px" y="0px"
	 viewBox="-584 768.2 25.9 25.9" style="enable-background:new -584 768.2 25.9 25.9;" xml:space="preserve">
<style type="text/css">
	.st0{fill:#FFFFFF;}
	.st1{fill:#7F7F7F;}
</style>
<g id="Layer_2">
	<circle class="st0" cx="-571" cy="781.2" r="12.6"/>
</g>
<g id="Layer_1">
	<g>
		<path class="st1" d="M-571.2,785.1c2.2,0,4.1-1.8,4.1-4.1c0-2.2-1.8-4.1-4.1-4.1c-2.2,0-4.1,1.8-4.1,4.1
			C-575.3,783.2-573.4,785.1-571.2,785.1z"/>
		<path class="st1" d="M-571.2,793.8c7.1,0,12.8-5.7,12.8-12.8c0-7.1-5.7-12.8-12.8-12.8c-7.1,0-12.8,5.7-12.8,12.8
			C-584,788.1-578.3,793.8-571.2,793.8z M-571.2,773.5c4.1,0,7.5,3.4,7.5,7.5s-3.4,7.5-7.5,7.5s-7.5-3.4-7.5-7.5
			S-575.3,773.5-571.2,773.5z"/>
	</g>
</g>
</svg>
