<?xml version="1.0" encoding="utf-8"?>
<!-- Generator: Adobe Illustrator 19.0.0, SVG Export Plug-In . SVG Version: 6.00 Build 0)  -->
<svg version="1.1" id="Layer_1" xmlns="http://www.w3.org/2000/svg" xmlns:xlink="http://www.w3.org/1999/xlink" x="0px" y="0px"
	 viewBox="-584 768.2 25.9 25.9" style="enable-background:new -584 768.2 25.9 25.9;" xml:space="preserve">
<style type="text/css">
	.st0{fill:#ED2051;}
	.st1{fill:#FFFFFF;}
</style>
<g id="XMLID_66_">
	<path id="XMLID_61_" class="st0" d="M-571,768.2c-7.1,0-13,5.8-13,13c0,7.1,5.8,12.9,13,12.9c7.1,0,12.9-5.8,12.9-12.9
		C-558.1,774-563.9,768.2-571,768.2z"/>
</g>
<g>
	<g>
		<path class="st1" d="M-565.3,775.8c-3-3-7.8-3-10.8,0c-3,3-3,7.8,0,10.8c1.5,1.5,3.4,2.3,5.4,2.3c2,0,3.9-0.8,5.4-2.3
			C-562.3,783.6-562.3,778.8-565.3,775.8z M-574.2,784.7c-1.6-1.6-1.9-4-0.8-5.9l6.7,6.7C-570.2,786.6-572.6,786.3-574.2,784.7z
			 M-566.4,783.6l-6.7-6.7c1.9-1.1,4.3-0.8,5.9,0.8C-565.6,779.3-565.3,781.7-566.4,783.6z"/>
	</g>
</g>
</svg>
