<?xml version="1.0" encoding="utf-8"?>
<!-- Generator: Adobe Illustrator 19.0.0, SVG Export Plug-In . SVG Version: 6.00 Build 0)  -->
<svg version="1.1" id="Layer_1" xmlns="http://www.w3.org/2000/svg" xmlns:xlink="http://www.w3.org/1999/xlink" x="0px" y="0px"
	 viewBox="-283 285 512 512" style="enable-background:new -283 285 512 512;" xml:space="preserve">
<style type="text/css">
	.st0{fill:#78859B;}
</style>
<g>
	<path class="st0" d="M141,349H53v-16c0-26.5-21.5-48-48-48h-64c-26.5,0-48,21.5-48,48v16h-88c-22.1,0-40,17.9-40,40v56
		c0,8.8,7.2,16,16,16h8.7l13.8,290.3c1.2,25.6,22.3,45.7,47.9,45.7h243c25.7,0,46.7-20.1,47.9-45.7L156.3,461h8.7
		c8.8,0,16-7.2,16-16v-56C181,366.9,163.1,349,141,349L141,349z M-75,333c0-8.8,7.2-16,16-16H5c8.8,0,16,7.2,16,16v16h-96V333z
		 M-203,389c0-4.4,3.6-8,8-8h336c4.4,0,8,3.6,8,8v40c-4.9,0-331.6,0-352,0V389z M110.5,749.8c-0.4,8.5-7.4,15.2-16,15.2h-243
		c-8.6,0-15.6-6.7-16-15.2L-178.2,461h302.4L110.5,749.8z"/>
	<path class="st0" d="M-27,733c8.8,0,16-7.2,16-16V509c0-8.8-7.2-16-16-16s-16,7.2-16,16v208C-43,725.8-35.8,733-27,733z"/>
	<path class="st0" d="M53,733c8.8,0,16-7.2,16-16V509c0-8.8-7.2-16-16-16s-16,7.2-16,16v208C37,725.8,44.2,733,53,733z"/>
	<path class="st0" d="M-107,733c8.8,0,16-7.2,16-16V509c0-8.8-7.2-16-16-16s-16,7.2-16,16v208C-123,725.8-115.8,733-107,733z"/>
</g>
</svg>
