<?xml version="1.0" encoding="utf-8"?>
<!-- Generator: Adobe Illustrator 19.0.0, SVG Export Plug-In . SVG Version: 6.00 Build 0)  -->
<svg version="1.1" id="Capa_1" xmlns="http://www.w3.org/2000/svg" xmlns:xlink="http://www.w3.org/1999/xlink" x="0px" y="0px"
	 viewBox="-100 192.4 409.6 409.6" style="enable-background:new -100 192.4 409.6 409.6;" xml:space="preserve">
<style type="text/css">
	.st0{fill:#B5C0D2;}
</style>
<g>
	<g>
		<path class="st0" d="M147.5,192.4H62.1c-9.4,0-17.1,7.7-17.1,17.1v42.7c0,9.4,7.7,17.1,17.1,17.1h85.3c9.4,0,17.1-7.7,17.1-17.1
			v-42.7C164.5,200.1,156.9,192.4,147.5,192.4z"/>
	</g>
</g>
<g>
	<g>
		<path class="st0" d="M241.3,226.5h-51.2v34.1c0,18.8-15.4,34.1-34.1,34.1H53.6c-18.8,0-34.1-15.4-34.1-34.1v-34.1h-51.2
			c-18.8,0-34.1,15.4-34.1,34.1v307.2c0,18.8,15.4,34.1,34.1,34.1h273.1c18.8,0,34.1-15.4,34.1-34.1V260.7
			C275.5,241.9,260.1,226.5,241.3,226.5z M2.4,363.1h102.4v34.1H2.4V363.1z M173.1,533.7H2.4v-34.1h170.7V533.7z M207.2,465.5H2.4
			v-34.1h204.8V465.5z"/>
	</g>
</g>
</svg>
