<?xml version="1.0" encoding="utf-8"?>
<!-- Generator: Adobe Illustrator 19.0.0, SVG Export Plug-In . SVG Version: 6.00 Build 0)  -->
<svg version="1.1" id="Layer_1" xmlns="http://www.w3.org/2000/svg" xmlns:xlink="http://www.w3.org/1999/xlink" x="0px" y="0px"
	 viewBox="-584 768.2 25.9 25.9" style="enable-background:new -584 768.2 25.9 25.9;" xml:space="preserve">
<style type="text/css">
	.st0{fill:#1DA4EF;}
	.st1{fill:#FAFAFA;}
</style>
<g id="XMLID_66_">
	<path id="XMLID_61_" class="st0" d="M-571,768.2c-7.1,0-13,5.8-13,13c0,7.1,5.8,12.9,13,12.9c7.1,0,12.9-5.8,12.9-12.9
		C-558.1,774-563.9,768.2-571,768.2z"/>
	<path id="XMLID_57_" class="st1" d="M-564.5,778.4l-7,7c-0.2,0.2-0.5,0.3-0.8,0.3s-0.6-0.1-0.8-0.3l-3.5-3.5
		c-0.4-0.4-0.4-1.1,0-1.5c0.4-0.4,1.1-0.4,1.5,0l2.7,2.7l6.3-6.3c0.4-0.4,1.1-0.4,1.5,0C-564.1,777.3-564.1,778-564.5,778.4z"/>
</g>
</svg>
