<?xml version="1.0" encoding="utf-8"?>
<!-- Generator: Adobe Illustrator 19.0.0, SVG Export Plug-In . SVG Version: 6.00 Build 0)  -->
<svg version="1.1" id="Capa_1" xmlns="http://www.w3.org/2000/svg" xmlns:xlink="http://www.w3.org/1999/xlink" x="0px" y="0px"
	 viewBox="-334 336.4 409.6 409.6" style="enable-background:new -334 336.4 409.6 409.6;" xml:space="preserve">
<style type="text/css">
	.st0{fill:#8896AA;}
</style>
<g>
	<g id="loop_x5F_alt2">
		<g>
			<path class="st0" d="M-206,599.1l102.4,76.9L-206,753.4v-51.2h-25.6c-42.4,0-76.8-34.4-76.8-76.8V471.8
				c0-42.4,34.4-76.8,76.8-76.8h25.6v51.2h-25.6c-14.1,0-25.6,11.5-25.6,25.6v153.6c0,14.1,11.5,25.6,25.6,25.6h25.6V599.1z"/>
			<path class="st0" d="M-52.4,498.1l-102.4-76.9l102.4-77.4V395h25.6c42.4,0,76.8,34.4,76.8,76.8v153.6c0,42.4-34.4,76.8-76.8,76.8
				h-25.6V651h25.6c14.1,0,25.6-11.5,25.6-25.6V471.8c0-14.1-11.5-25.6-25.6-25.6h-25.6V498.1z"/>
		</g>
	</g>
</g>
</svg>
