<?xml version="1.0" encoding="utf-8"?>
<!-- Generator: Adobe Illustrator 19.0.0, SVG Export Plug-In . SVG Version: 6.00 Build 0)  -->
<svg version="1.1" id="Capa_1" xmlns="http://www.w3.org/2000/svg" xmlns:xlink="http://www.w3.org/1999/xlink" x="0px" y="0px"
	 viewBox="-100 192.4 409.6 409.6" style="enable-background:new -100 192.4 409.6 409.6;" xml:space="preserve">
<style type="text/css">
	.st0{fill:#68BC7C;}
</style>
<g>
	<g id="loop_x5F_alt2">
		<g>
			<path class="st0" d="M27.4,447.7l102.4,76.9L27.4,602v-51.2H1.8c-42.4,0-76.8-34.4-76.8-76.8V320.4c0-42.4,34.4-76.8,76.8-76.8
				h25.6v51.2H1.8c-14.1,0-25.6,11.5-25.6,25.6V474c0,14.1,11.5,25.6,25.6,25.6h25.6V447.7z"/>
			<path class="st0" d="M181,346.7L78.6,269.8L181,192.4v51.2h25.6c42.4,0,76.8,34.4,76.8,76.8V474c0,42.4-34.4,76.8-76.8,76.8H181
				v-51.2h25.6c14.1,0,25.6-11.5,25.6-25.6V320.4c0-14.1-11.5-25.6-25.6-25.6H181V346.7z"/>
		</g>
	</g>
</g>
</svg>
