<?xml version="1.0" encoding="utf-8"?>
<!-- Generator: Adobe Illustrator 19.0.0, SVG Export Plug-In . SVG Version: 6.00 Build 0)  -->
<svg version="1.1" id="Capa_1" xmlns="http://www.w3.org/2000/svg" xmlns:xlink="http://www.w3.org/1999/xlink" x="0px" y="0px"
	 viewBox="-49 141 512 512" style="enable-background:new -49 141 512 512;" xml:space="preserve">
<style type="text/css">
	.st0{fill:#1BA074;}
</style>
<g>
	<path class="st0" d="M102.9,427.6c7.1-8.1,1.3-20.9-9.5-20.9H61.1c-0.2-3.2-0.3-6.4-0.3-9.7c0-80.6,65.6-146.2,146.2-146.2
		c38.8,0,74,15.2,100.2,39.8l45.6-53.4c-39.9-36.5-91.4-56.6-145.9-56.6c-57.8,0-112.1,22.5-153,63.4C13.2,284.9-9.3,339.2-9.3,397
		c0,3.2,0.1,6.5,0.2,9.7h-27.3c-10.8,0-16.6,12.7-9.5,20.9l61.5,70.5l12.9,14.8l46.4-53.2L102.9,427.6z"/>
	<path class="st0" d="M459.9,386.4L414,333.8L385.5,301l-40.8,46.7l-33.7,38.6c-7.1,8.1-1.3,20.9,9.5,20.9h32.3
		c-5.3,75.9-68.7,136-145.9,136c-33.7,0-64.8-11.5-89.5-30.7L71.9,566c38.2,30.7,85.4,47.4,135.1,47.4c57.8,0,112.1-22.5,153-63.4
		c38.4-38.4,60.6-88.8,63.1-142.7h27.3C461.2,407.3,467,394.5,459.9,386.4L459.9,386.4z"/>
</g>
</svg>
