<?xml version="1.0" encoding="iso-8859-1"?>
<!-- Generator: Adobe Illustrator 17.1.0, SVG Export Plug-In . SVG Version: 6.00 Build 0)  -->
<!DOCTYPE svg PUBLIC "-//W3C//DTD SVG 1.1//EN" "http://www.w3.org/Graphics/SVG/1.1/DTD/svg11.dtd">
<svg version="1.1" id="Capa_1" xmlns="http://www.w3.org/2000/svg" xmlns:xlink="http://www.w3.org/1999/xlink" x="0px" y="0px"
	 viewBox="0 0 296 296" style="enable-background:new 0 0 296 296;" xml:space="preserve">
<path d="M262.5,103.792c11.046,0,20-8.954,20-20V49.77C282.5,22.212,260.57,0,233,0H64C36.43,0,13.5,22.212,13.5,49.77v168
	C13.5,245.352,36.43,268,64,268h137.5v17.792c0,6.132,4.018,10.208,9.411,10.208c0,0,0.125,0,0.126,0
	c2.065,0,4.218-0.546,6.273-1.825l59.369-36.885c3.493-2.176,5.512-5.426,5.512-8.963c0-3.545-2.004-6.819-5.513-9.004
	l-59.309-36.929c-2.057-1.28-4.395-1.926-6.461-1.926c-5.394,0-9.409,4.286-9.409,10.418V228H64c-5.421,0-10.5-4.797-10.5-10.23
	v-168C53.5,44.361,58.579,40,64,40h169c5.421,0,9.5,4.361,9.5,9.77v34.023C242.5,94.838,251.454,103.792,262.5,103.792z"/>
<g>
</g>
<g>
</g>
<g>
</g>
<g>
</g>
<g>
</g>
<g>
</g>
<g>
</g>
<g>
</g>
<g>
</g>
<g>
</g>
<g>
</g>
<g>
</g>
<g>
</g>
<g>
</g>
<g>
</g>
</svg>
