<?xml version="1.0" encoding="utf-8"?>
<!-- Generator: Adobe Illustrator 19.0.0, SVG Export Plug-In . SVG Version: 6.00 Build 0)  -->
<svg version="1.1" id="Capa_1" xmlns="http://www.w3.org/2000/svg" xmlns:xlink="http://www.w3.org/1999/xlink" x="0px" y="0px"
	 viewBox="-282 374.5 45.5 45.5" style="enable-background:new -282 374.5 45.5 45.5;" xml:space="preserve">
<style type="text/css">
	.st0{fill:#9BCEBB;}
</style>
<g>
	<path class="st0" d="M-259.2,374.5c-12.6,0-22.8,10.2-22.8,22.8s10.2,22.8,22.8,22.8c12.6,0,22.8-10.2,22.8-22.8
		S-246.7,374.5-259.2,374.5z M-259.2,381.3c4.2,0,7.5,3.4,7.5,7.5c0,4.2-3.4,7.5-7.5,7.5c-4.2,0-7.5-3.4-7.5-7.5
		C-266.8,384.6-263.4,381.3-259.2,381.3z M-259.2,414c-4.1,0-7.9-1.5-10.9-4c-0.7-0.6-1.1-1.5-1.1-2.4c0-4.2,3.4-7.6,7.6-7.6h8.8
		c4.2,0,7.6,3.4,7.6,7.6c0,0.9-0.4,1.8-1.1,2.4C-251.3,412.5-255.1,414-259.2,414z"/>
</g>
</svg>
